<mxfile host="app.diagrams.net" modified="2024-05-11T21:57:05.874Z" agent="Mozilla/5.0 (Windows NT 10.0; Win64; x64; rv:125.0) Gecko/20100101 Firefox/125.0" etag="F87ke4UHWdoYBda42rg5" version="24.3.1" type="github">
  <diagram name="Página-1" id="wNShXPRXodWdXrvJOk5q">
    <mxGraphModel dx="879" dy="440" grid="1" gridSize="10" guides="1" tooltips="1" connect="1" arrows="1" fold="1" page="1" pageScale="1" pageWidth="827" pageHeight="1169" math="0" shadow="0">
      <root>
        <mxCell id="0" />
        <mxCell id="1" parent="0" />
        <mxCell id="9V-kgjZNRYA82kGKzsJv-5" style="edgeStyle=orthogonalEdgeStyle;rounded=0;orthogonalLoop=1;jettySize=auto;html=1;entryX=0.5;entryY=0;entryDx=0;entryDy=0;" edge="1" parent="1" source="9V-kgjZNRYA82kGKzsJv-1" target="9V-kgjZNRYA82kGKzsJv-2">
          <mxGeometry relative="1" as="geometry">
            <Array as="points">
              <mxPoint x="314" y="40" />
            </Array>
          </mxGeometry>
        </mxCell>
        <mxCell id="9V-kgjZNRYA82kGKzsJv-6" style="edgeStyle=orthogonalEdgeStyle;rounded=0;orthogonalLoop=1;jettySize=auto;html=1;exitX=0.5;exitY=1;exitDx=0;exitDy=0;exitPerimeter=0;entryX=0.5;entryY=0;entryDx=0;entryDy=0;" edge="1" parent="1" source="9V-kgjZNRYA82kGKzsJv-1" target="9V-kgjZNRYA82kGKzsJv-3">
          <mxGeometry relative="1" as="geometry" />
        </mxCell>
        <mxCell id="9V-kgjZNRYA82kGKzsJv-8" style="edgeStyle=orthogonalEdgeStyle;rounded=0;orthogonalLoop=1;jettySize=auto;html=1;entryX=0.5;entryY=0;entryDx=0;entryDy=0;" edge="1" parent="1" source="9V-kgjZNRYA82kGKzsJv-1" target="9V-kgjZNRYA82kGKzsJv-4">
          <mxGeometry relative="1" as="geometry">
            <Array as="points">
              <mxPoint x="514" y="40" />
            </Array>
          </mxGeometry>
        </mxCell>
        <mxCell id="9V-kgjZNRYA82kGKzsJv-1" value="Inicio" style="strokeWidth=2;html=1;shape=mxgraph.flowchart.start_1;whiteSpace=wrap;" vertex="1" parent="1">
          <mxGeometry x="364" y="10" width="100" height="60" as="geometry" />
        </mxCell>
        <mxCell id="9V-kgjZNRYA82kGKzsJv-2" value="a = 51" style="shape=parallelogram;html=1;strokeWidth=2;perimeter=parallelogramPerimeter;whiteSpace=wrap;rounded=1;arcSize=12;size=0.23;" vertex="1" parent="1">
          <mxGeometry x="264" y="90" width="100" height="60" as="geometry" />
        </mxCell>
        <mxCell id="9V-kgjZNRYA82kGKzsJv-11" value="" style="edgeStyle=orthogonalEdgeStyle;rounded=0;orthogonalLoop=1;jettySize=auto;html=1;" edge="1" parent="1" source="9V-kgjZNRYA82kGKzsJv-3" target="9V-kgjZNRYA82kGKzsJv-9">
          <mxGeometry relative="1" as="geometry" />
        </mxCell>
        <mxCell id="9V-kgjZNRYA82kGKzsJv-3" value="b = 876" style="shape=parallelogram;html=1;strokeWidth=2;perimeter=parallelogramPerimeter;whiteSpace=wrap;rounded=1;arcSize=12;size=0.23;" vertex="1" parent="1">
          <mxGeometry x="364" y="90" width="100" height="60" as="geometry" />
        </mxCell>
        <mxCell id="9V-kgjZNRYA82kGKzsJv-4" value="c = 235" style="shape=parallelogram;html=1;strokeWidth=2;perimeter=parallelogramPerimeter;whiteSpace=wrap;rounded=1;arcSize=12;size=0.23;" vertex="1" parent="1">
          <mxGeometry x="464" y="90" width="100" height="60" as="geometry" />
        </mxCell>
        <mxCell id="9V-kgjZNRYA82kGKzsJv-15" value="" style="edgeStyle=orthogonalEdgeStyle;rounded=0;orthogonalLoop=1;jettySize=auto;html=1;" edge="1" parent="1" source="9V-kgjZNRYA82kGKzsJv-9" target="9V-kgjZNRYA82kGKzsJv-14">
          <mxGeometry relative="1" as="geometry" />
        </mxCell>
        <mxCell id="9V-kgjZNRYA82kGKzsJv-9" value="&lt;font style=&quot;font-size: 9px;&quot;&gt;Valores actuales a=51, b=876, c=235&lt;/font&gt;" style="strokeWidth=2;html=1;shape=mxgraph.flowchart.display;whiteSpace=wrap;" vertex="1" parent="1">
          <mxGeometry x="364" y="180" width="100" height="60" as="geometry" />
        </mxCell>
        <mxCell id="9V-kgjZNRYA82kGKzsJv-10" style="edgeStyle=orthogonalEdgeStyle;rounded=0;orthogonalLoop=1;jettySize=auto;html=1;entryX=0;entryY=0.5;entryDx=0;entryDy=0;entryPerimeter=0;" edge="1" parent="1" source="9V-kgjZNRYA82kGKzsJv-2" target="9V-kgjZNRYA82kGKzsJv-9">
          <mxGeometry relative="1" as="geometry" />
        </mxCell>
        <mxCell id="9V-kgjZNRYA82kGKzsJv-12" style="edgeStyle=orthogonalEdgeStyle;rounded=0;orthogonalLoop=1;jettySize=auto;html=1;entryX=1;entryY=0.5;entryDx=0;entryDy=0;entryPerimeter=0;" edge="1" parent="1" source="9V-kgjZNRYA82kGKzsJv-4" target="9V-kgjZNRYA82kGKzsJv-9">
          <mxGeometry relative="1" as="geometry" />
        </mxCell>
        <mxCell id="9V-kgjZNRYA82kGKzsJv-18" value="" style="edgeStyle=orthogonalEdgeStyle;rounded=0;orthogonalLoop=1;jettySize=auto;html=1;" edge="1" parent="1" source="9V-kgjZNRYA82kGKzsJv-13" target="9V-kgjZNRYA82kGKzsJv-17">
          <mxGeometry relative="1" as="geometry" />
        </mxCell>
        <mxCell id="9V-kgjZNRYA82kGKzsJv-13" value="&lt;div&gt;a = c&lt;/div&gt;&lt;div&gt;c = b&lt;/div&gt;&lt;div&gt;b= temp&lt;br&gt;&lt;/div&gt;" style="rounded=1;whiteSpace=wrap;html=1;absoluteArcSize=1;arcSize=14;strokeWidth=2;" vertex="1" parent="1">
          <mxGeometry x="364" y="360" width="100" height="50" as="geometry" />
        </mxCell>
        <mxCell id="9V-kgjZNRYA82kGKzsJv-16" value="" style="edgeStyle=orthogonalEdgeStyle;rounded=0;orthogonalLoop=1;jettySize=auto;html=1;" edge="1" parent="1" source="9V-kgjZNRYA82kGKzsJv-14" target="9V-kgjZNRYA82kGKzsJv-13">
          <mxGeometry relative="1" as="geometry" />
        </mxCell>
        <mxCell id="9V-kgjZNRYA82kGKzsJv-14" value="temp = a" style="shape=parallelogram;html=1;strokeWidth=2;perimeter=parallelogramPerimeter;whiteSpace=wrap;rounded=1;arcSize=12;size=0.23;" vertex="1" parent="1">
          <mxGeometry x="364" y="270" width="100" height="60" as="geometry" />
        </mxCell>
        <mxCell id="9V-kgjZNRYA82kGKzsJv-20" value="" style="edgeStyle=orthogonalEdgeStyle;rounded=0;orthogonalLoop=1;jettySize=auto;html=1;" edge="1" parent="1" source="9V-kgjZNRYA82kGKzsJv-17" target="9V-kgjZNRYA82kGKzsJv-19">
          <mxGeometry relative="1" as="geometry" />
        </mxCell>
        <mxCell id="9V-kgjZNRYA82kGKzsJv-17" value="valores tras la permutación" style="strokeWidth=2;html=1;shape=mxgraph.flowchart.display;whiteSpace=wrap;" vertex="1" parent="1">
          <mxGeometry x="364" y="440" width="100" height="60" as="geometry" />
        </mxCell>
        <mxCell id="9V-kgjZNRYA82kGKzsJv-19" value="Fin" style="strokeWidth=2;html=1;shape=mxgraph.flowchart.terminator;whiteSpace=wrap;" vertex="1" parent="1">
          <mxGeometry x="364" y="525" width="100" height="60" as="geometry" />
        </mxCell>
      </root>
    </mxGraphModel>
  </diagram>
</mxfile>
